<svg id="Layer_1" data-name="Layer 1" xmlns="http://www.w3.org/2000/svg" viewBox="0 0 100 50"><defs><style>.cls-1{fill:#ce6429;}</style></defs><title>Buffbank</title><path class="cls-1" d="M13.11,13.17c2.85,0,4.16.56,4.16,2.29A9.83,9.83,0,0,1,17.11,17l-.5,2.84a4.66,4.66,0,0,1-1,2.34,3.35,3.35,0,0,1-1.47.9,2,2,0,0,1,1.44,2,8,8,0,0,1-.12,1.3l-.69,4c-.59,3.45-1.41,4.35-5.87,4.35H4L7.81,13.17ZM8.81,31.89a2.22,2.22,0,0,0,.43,0c.75,0,1-.27,1.13-1l1-5.33v-.24c0-.51-.25-.67-.93-.67h-.34Zm1.81-10.33.37,0c.81,0,1.13-.26,1.22-.95l.65-3.75a1.2,1.2,0,0,0,0-.32c0-.42-.25-.58-.82-.58h-.5Z"/><path class="cls-1" d="M24.07,13.17,20.92,31.1a2.67,2.67,0,0,0,0,.34c0,.4.22.59.62.59s.75-.32.84-.93l3.16-17.93h4.28L26.73,30.59c-.66,3.67-1.38,4.3-5.69,4.3-3.15,0-4.52-.26-4.52-2.2a12.83,12.83,0,0,1,.25-2.1l3.06-17.42Z"/><path class="cls-1" d="M38.81,13.17,38.31,16H35.72l-1,5.49h2.59l-.5,2.85H34.25l-1.81,10.4H28.16L32,13.17Z"/><path class="cls-1" d="M47.64,13.17,47.14,16H44.55l-1,5.49h2.6l-.5,2.85h-2.6l-1.81,10.4H37l3.81-21.56Z"/><path class="cls-1" d="M54.85,13.17c2.85,0,4.16.56,4.16,2.29A9.83,9.83,0,0,1,58.85,17l-.5,2.84a4.66,4.66,0,0,1-1,2.34,3.35,3.35,0,0,1-1.47.9,2,2,0,0,1,1.44,2,8,8,0,0,1-.12,1.3l-.69,4c-.59,3.45-1.41,4.35-5.87,4.35H45.77l3.78-21.56Zm-4.3,18.72a2.22,2.22,0,0,0,.43,0c.75,0,1-.27,1.13-1l1-5.33v-.24c0-.51-.25-.67-.93-.67h-.35Zm1.81-10.33.37,0c.81,0,1.13-.26,1.22-.95l.65-3.75a1.59,1.59,0,0,0,0-.32c0-.42-.24-.58-.81-.58h-.5Z"/><path class="cls-1" d="M69.28,13.17,68,34.73H63.91l.5-4.59H62.5l-1.12,4.59H57.26l6.3-21.56Zm-6.09,14.1h1.53l1.06-9.82h-.19Z"/><path class="cls-1" d="M77.36,13.17l.47,10.76h.28l1.81-10.76h3.69L79.83,34.73H76.05l-.47-11h-.25l-1.87,11H69.78l3.77-21.56Z"/><path class="cls-1" d="M90,13.17l-1.5,8.61.25,0,3.06-8.58H96l-4.15,9.54.65,12H88.23l0-10.46H88L86.17,34.73H82.05l3.77-21.56Z"/></svg>